<?xml version="1.0" encoding="UTF-8" standalone="no"?>
<svg
   width="498.065"
   height="184.66963"
   viewBox="0 0 498.065 184.66963"
   version="1.1"
   xml:space="preserve"
   style="clip-rule:evenodd;fill-rule:evenodd;stroke-linejoin:round;stroke-miterlimit:2"
   id="svg106"
   sodipodi:docname="iloveifc-logo.svg"
   inkscape:version="1.1.2 (b8e25be8, 2022-02-05)"
   xmlns:inkscape="http://www.inkscape.org/namespaces/inkscape"
   xmlns:sodipodi="http://sodipodi.sourceforge.net/DTD/sodipodi-0.dtd"
   xmlns="http://www.w3.org/2000/svg"
   xmlns:svg="http://www.w3.org/2000/svg"><defs
   id="defs110">
        
        
        
    
            
            
            
        </defs><sodipodi:namedview
   id="namedview108"
   pagecolor="#ffffff"
   bordercolor="#666666"
   borderopacity="1.0"
   inkscape:pageshadow="2"
   inkscape:pageopacity="0.0"
   inkscape:pagecheckerboard="0"
   showgrid="false"
   fit-margin-top="0"
   fit-margin-left="0"
   fit-margin-right="0"
   fit-margin-bottom="0"
   inkscape:zoom="1.2040609"
   inkscape:cx="299.81872"
   inkscape:cy="92.603288"
   inkscape:window-width="1920"
   inkscape:window-height="1027"
   inkscape:window-x="0"
   inkscape:window-y="25"
   inkscape:window-maximized="0"
   inkscape:current-layer="svg106" />
    <rect
   x="-65.957985"
   y="-118.54545"
   width="984.10486"
   height="421.75992"
   style="fill:none;stroke-width:0.904678"
   id="rect9" /><g
   transform="matrix(2.9545062,0,0,2.9545201,-1070.6604,-136.01925)"
   id="g15">
                <g
   transform="matrix(55.9237,0,0,55.9237,359.586,97.005)"
   id="g13">
                    <path
   d="M 0.289,-0.623 C 0.287,-0.612 0.285,-0.598 0.283,-0.582 0.281,-0.565 0.28,-0.551 0.28,-0.542 v 0.349 c 0,0.036 0.003,0.074 0.009,0.116 L 0.354,-0.071 0.349,0.005 C 0.34,0.004 0.317,0.003 0.281,0.002 0.244,0.001 0.202,0 0.155,0 0.136,0 0.116,0.001 0.095,0.002 0.074,0.003 0.061,0.004 0.055,0.005 L 0.05,-0.065 0.116,-0.077 c 0.001,-0.004 0.002,-0.017 0.005,-0.038 0.003,-0.022 0.004,-0.038 0.004,-0.048 v -0.349 c 0,-0.03 -0.001,-0.055 -0.004,-0.076 C 0.118,-0.609 0.116,-0.621 0.116,-0.623 L 0.051,-0.635 0.056,-0.71 c 0.006,0.001 0.019,0.002 0.04,0.003 0.021,0.001 0.041,0.002 0.06,0.002 0.047,0 0.089,-0.001 0.125,-0.002 0.037,-0.001 0.06,-0.002 0.069,-0.003 l 0.005,0.081 z"
   style="fill-rule:nonzero"
   id="path11" />
                </g>
            </g><g
   transform="matrix(2.9545062,0,0,2.9545201,-819.75131,-136.01925)"
   id="g29">
                <g
   transform="matrix(55.9237,0,0,55.9237,359.586,97.005)"
   id="g19">
                    <path
   d="M 0.289,-0.623 C 0.287,-0.612 0.285,-0.598 0.283,-0.582 0.281,-0.565 0.28,-0.551 0.28,-0.542 v 0.349 c 0,0.036 0.003,0.074 0.009,0.116 L 0.354,-0.071 0.349,0.005 C 0.34,0.004 0.317,0.003 0.281,0.002 0.244,0.001 0.202,0 0.155,0 0.136,0 0.116,0.001 0.095,0.002 0.074,0.003 0.061,0.004 0.055,0.005 L 0.05,-0.065 0.116,-0.077 c 0.001,-0.004 0.002,-0.017 0.005,-0.038 0.003,-0.022 0.004,-0.038 0.004,-0.048 v -0.349 c 0,-0.03 -0.001,-0.055 -0.004,-0.076 C 0.118,-0.609 0.116,-0.621 0.116,-0.623 L 0.051,-0.635 0.056,-0.71 c 0.006,0.001 0.019,0.002 0.04,0.003 0.021,0.001 0.041,0.002 0.06,0.002 0.047,0 0.089,-0.001 0.125,-0.002 0.037,-0.001 0.06,-0.002 0.069,-0.003 l 0.005,0.081 z"
   style="fill-rule:nonzero"
   id="path17" />
                </g>
                <g
   transform="matrix(55.9237,0,0,55.9237,382.223,97.005)"
   id="g23">
                    <path
   d="m 0.533,-0.715 c -0.01,0.001 -0.029,0.003 -0.058,0.006 -0.029,0.003 -0.047,0.004 -0.056,0.004 H 0.151 c -0.019,0 -0.039,-0.001 -0.06,-0.002 C 0.07,-0.708 0.057,-0.709 0.051,-0.71 l -0.005,0.075 0.065,0.012 c 0.002,0.008 0.004,0.023 0.006,0.044 0.002,0.021 0.003,0.044 0.003,0.067 v 0.349 c 0,0.01 -0.001,0.026 -0.004,0.047 -0.002,0.021 -0.004,0.034 -0.005,0.039 L 0.045,-0.065 0.05,0.005 C 0.056,0.004 0.069,0.003 0.09,0.002 0.111,0.001 0.131,0 0.15,0 0.197,0 0.243,0.001 0.288,0.002 0.333,0.003 0.361,0.004 0.374,0.005 L 0.379,-0.071 0.284,-0.077 C 0.282,-0.087 0.28,-0.102 0.278,-0.123 0.276,-0.144 0.275,-0.167 0.275,-0.19 V -0.304 C 0.28,-0.305 0.288,-0.305 0.3,-0.305 h 0.037 c 0.008,0 0.02,0.001 0.035,0.003 0.015,0.001 0.024,0.003 0.029,0.003 l 0.009,0.06 0.064,-0.006 C 0.473,-0.254 0.473,-0.27 0.472,-0.295 c 0,-0.024 -0.001,-0.05 -0.001,-0.077 L 0.472,-0.455 0.41,-0.46 0.401,-0.396 C 0.398,-0.395 0.392,-0.393 0.384,-0.391 0.375,-0.388 0.366,-0.387 0.357,-0.387 H 0.299 c -0.009,0 -0.017,-0.001 -0.024,-0.001 v -0.154 c 0,-0.006 0.001,-0.033 0.004,-0.081 h 0.11 c 0.02,0 0.047,0.002 0.08,0.005 0.006,0.014 0.009,0.022 0.009,0.023 0.002,0.007 0.005,0.027 0.009,0.059 L 0.559,-0.541 0.552,-0.697 Z"
   style="fill-rule:nonzero"
   id="path21" />
                </g>
                <g
   transform="matrix(55.9237,0,0,55.9237,412.37,97.005)"
   id="g27">
                    <path
   d="M 0.602,-0.019 C 0.558,-0.008 0.519,0 0.485,0.006 0.451,0.012 0.415,0.015 0.377,0.015 0.301,0.015 0.237,0 0.185,-0.031 0.132,-0.061 0.093,-0.104 0.066,-0.159 0.04,-0.215 0.027,-0.279 0.027,-0.352 0.027,-0.425 0.04,-0.49 0.066,-0.545 0.093,-0.6 0.132,-0.643 0.185,-0.674 0.238,-0.705 0.302,-0.72 0.377,-0.72 c 0.037,0 0.071,0.002 0.1,0.008 0.029,0.005 0.067,0.014 0.116,0.026 L 0.581,-0.507 0.504,-0.511 0.501,-0.572 c 0,-0.006 -0.004,-0.02 -0.012,-0.041 -0.043,-0.009 -0.08,-0.014 -0.112,-0.014 -0.058,0 -0.101,0.025 -0.128,0.075 -0.028,0.05 -0.042,0.116 -0.042,0.199 0,0.083 0.014,0.149 0.041,0.199 0.027,0.051 0.07,0.076 0.128,0.076 0.038,0 0.079,-0.005 0.124,-0.015 0.001,-0.003 0.004,-0.011 0.009,-0.024 0.005,-0.013 0.007,-0.021 0.007,-0.025 l 0.003,-0.047 0.075,-0.002 z"
   style="fill-rule:nonzero"
   id="path25" />
                </g>
            </g><g
   id="IFC"
   transform="matrix(1.0144555,0,0,1.0144603,-77.331017,-165.20485)">
                <g
   transform="matrix(0.772073,0.829486,-0.833099,0.775435,191.355,-150.914)"
   id="g35">
                    <path
   d="m 352.458,195.385 c 0,-8.182 -6.672,-14.826 -14.89,-14.826 h -37.903 c -8.218,0 -14.89,6.644 -14.89,14.826 v 45.894 c 0,8.183 6.672,14.826 14.89,14.826 h 37.903 c 8.218,0 14.89,-6.643 14.89,-14.826 z"
   style="fill:#ff000b"
   id="path31" />
                    <path
   d="m 362.897,195.385 c 0,-13.919 -11.35,-25.219 -25.329,-25.219 0,0 -37.903,0 -37.903,0 -13.979,0 -25.328,11.3 -25.328,25.219 v 45.894 c 0,13.919 11.349,25.219 25.328,25.219 h 37.903 c 13.979,0 25.329,-11.3 25.329,-25.219 z m -10.439,0 c 0,-8.182 -6.672,-14.826 -14.89,-14.826 h -37.903 c -8.218,0 -14.89,6.644 -14.89,14.826 v 45.894 c 0,8.183 6.672,14.826 14.89,14.826 h 37.903 c 8.218,0 14.89,-6.643 14.89,-14.826 z"
   style="fill:#ffffff"
   id="path33" />
                </g>
                <g
   transform="matrix(0.828771,-0.772841,0.776207,0.83238,-234.991,346.486)"
   id="g41">
                    <path
   d="m 352.458,195.385 c 0,-8.182 -6.672,-14.826 -14.89,-14.826 h -37.903 c -8.218,0 -14.89,6.644 -14.89,14.826 v 45.894 c 0,8.183 6.672,14.826 14.89,14.826 h 37.903 c 8.218,0 14.89,-6.643 14.89,-14.826 z"
   style="fill:#ff000b"
   id="path37" />
                    <path
   d="m 362.897,195.385 c 0,-13.919 -11.35,-25.219 -25.329,-25.219 h -37.903 c -13.979,0 -25.328,11.3 -25.328,25.219 0,0 0,45.894 0,45.894 0,13.919 11.349,25.219 25.328,25.219 0,0 37.903,0 37.903,0 13.979,0 25.329,-11.3 25.329,-25.219 0,0 0,-45.894 0,-45.894 z m -10.439,0 c 0,-8.182 -6.672,-14.826 -14.89,-14.826 h -37.903 c -8.218,0 -14.89,6.644 -14.89,14.826 v 45.894 c 0,8.183 6.672,14.826 14.89,14.826 h 37.903 c 8.218,0 14.89,-6.643 14.89,-14.826 z"
   style="fill:#ffffff"
   id="path39" />
                </g>
                <g
   transform="matrix(0.772073,0.829486,-0.833099,0.775435,134.206,-208.064)"
   id="g47">
                    <path
   d="m 352.458,195.385 c 0,-8.182 -6.672,-14.826 -14.89,-14.826 h -37.903 c -8.218,0 -14.89,6.644 -14.89,14.826 v 45.894 c 0,8.183 6.672,14.826 14.89,14.826 h 37.903 c 8.218,0 14.89,-6.643 14.89,-14.826 z"
   style="fill:#ff000b"
   id="path43" />
                    <path
   d="m 362.897,195.385 c 0,-13.919 -11.35,-25.219 -25.329,-25.219 0,0 -37.903,0 -37.903,0 -13.979,0 -25.328,11.3 -25.328,25.219 v 45.894 c 0,13.919 11.349,25.219 25.328,25.219 h 37.903 c 13.979,0 25.329,-11.3 25.329,-25.219 z m -10.439,0 c 0,-8.182 -6.672,-14.826 -14.89,-14.826 h -37.903 c -8.218,0 -14.89,6.644 -14.89,14.826 v 45.894 c 0,8.183 6.672,14.826 14.89,14.826 h 37.903 c 8.218,0 14.89,-6.643 14.89,-14.826 z"
   style="fill:#ffffff"
   id="path45" />
                </g>
                <g
   transform="matrix(0.828771,-0.772841,0.776207,0.83238,-178.304,289.799)"
   id="g53">
                    <path
   d="m 352.458,195.385 c 0,-8.182 -6.672,-14.826 -14.89,-14.826 h -37.903 c -8.218,0 -14.89,6.644 -14.89,14.826 v 45.894 c 0,8.183 6.672,14.826 14.89,14.826 h 37.903 c 8.218,0 14.89,-6.643 14.89,-14.826 z"
   style="fill:#ff000b"
   id="path49" />
                    <path
   d="m 362.897,195.385 c 0,-13.919 -11.35,-25.219 -25.329,-25.219 h -37.903 c -13.979,0 -25.328,11.3 -25.328,25.219 v 45.894 c 0,13.919 11.349,25.219 25.328,25.219 h 37.903 c 13.979,0 25.329,-11.3 25.329,-25.219 0,0 0,-45.894 0,-45.894 z m -10.439,0 c 0,-8.182 -6.672,-14.826 -14.89,-14.826 h -37.903 c -8.218,0 -14.89,6.644 -14.89,14.826 v 45.894 c 0,8.183 6.672,14.826 14.89,14.826 h 37.903 c 8.218,0 14.89,-6.643 14.89,-14.826 z"
   style="fill:#ffffff"
   id="path51" />
                </g>
            </g>
</svg>
