<?xml version="1.0" encoding="UTF-8" standalone="no"?>
<svg
   width="198.82869"
   height="198.82578"
   viewBox="0 0 198.82869 198.82577"
   version="1.1"
   xml:space="preserve"
   style="clip-rule:evenodd;fill-rule:evenodd;stroke-linejoin:round;stroke-miterlimit:2"
   id="svg859"
   sodipodi:docname="iloveifc-symbol.svg"
   inkscape:version="1.1.2 (b8e25be8, 2022-02-05)"
   xmlns:inkscape="http://www.inkscape.org/namespaces/inkscape"
   xmlns:sodipodi="http://sodipodi.sourceforge.net/DTD/sodipodi-0.dtd"
   xmlns="http://www.w3.org/2000/svg"
   xmlns:svg="http://www.w3.org/2000/svg"
   xmlns:serif="http://www.serif.com/"><defs
   id="defs863">
        
        
        
    
            
            
            
        </defs><sodipodi:namedview
   id="namedview861"
   pagecolor="#ffffff"
   bordercolor="#666666"
   borderopacity="1.0"
   inkscape:pageshadow="2"
   inkscape:pageopacity="0.0"
   inkscape:pagecheckerboard="0"
   showgrid="false"
   fit-margin-top="0"
   fit-margin-left="0"
   fit-margin-right="0"
   fit-margin-bottom="0"
   inkscape:zoom="0.14860406"
   inkscape:cx="-995.9351"
   inkscape:cy="1066.5927"
   inkscape:window-width="1384"
   inkscape:window-height="1027"
   inkscape:window-x="0"
   inkscape:window-y="25"
   inkscape:window-maximized="0"
   inkscape:current-layer="svg859" />
    <rect
   x="-731.34045"
   y="-43.224873"
   width="984.10486"
   height="421.75992"
   style="fill:none;stroke-width:0.904678"
   id="rect762" /><g
   id="IFC1"
   serif:id="IFC"
   transform="matrix(1.1038351,0,0,1.1038403,-151.02802,-180.81759)">
                <g
   transform="matrix(0.772073,0.829486,-0.833099,0.775435,191.355,-150.914)"
   id="g835">
                    <path
   d="m 352.458,195.385 c 0,-8.182 -6.672,-14.826 -14.89,-14.826 h -37.903 c -8.218,0 -14.89,6.644 -14.89,14.826 v 45.894 c 0,8.183 6.672,14.826 14.89,14.826 h 37.903 c 8.218,0 14.89,-6.643 14.89,-14.826 z"
   style="fill:#ff000b"
   id="path831" />
                    <path
   d="m 362.052,195.385 c 0,-13.454 -10.971,-24.377 -24.484,-24.377 h -37.903 c -13.512,0 -24.483,10.923 -24.483,24.377 v 45.894 c 0,13.454 10.971,24.377 24.483,24.377 0,0 37.903,0 37.903,0 13.513,0 24.484,-10.923 24.484,-24.377 0,0 0,-45.894 0,-45.894 z m -9.594,0 c 0,-8.182 -6.672,-14.826 -14.89,-14.826 h -37.903 c -8.218,0 -14.89,6.644 -14.89,14.826 v 45.894 c 0,8.183 6.672,14.826 14.89,14.826 h 37.903 c 8.218,0 14.89,-6.643 14.89,-14.826 z"
   style="fill:#ffffff"
   id="path833" />
                </g>
                <g
   transform="matrix(0.828771,-0.772841,0.776207,0.83238,-234.991,346.486)"
   id="g841">
                    <path
   d="m 352.458,195.385 c 0,-8.182 -6.672,-14.826 -14.89,-14.826 h -37.903 c -8.218,0 -14.89,6.644 -14.89,14.826 v 45.894 c 0,8.183 6.672,14.826 14.89,14.826 h 37.903 c 8.218,0 14.89,-6.643 14.89,-14.826 z"
   style="fill:#ff000b"
   id="path837" />
                    <path
   d="m 362.052,195.385 c 0,-13.454 -10.971,-24.377 -24.484,-24.377 h -37.903 c -13.512,0 -24.483,10.923 -24.483,24.377 v 45.894 c 0,13.454 10.971,24.377 24.483,24.377 0,0 37.903,0 37.903,0 13.513,0 24.484,-10.923 24.484,-24.377 0,0 0,-45.894 0,-45.894 z m -9.594,0 c 0,-8.182 -6.672,-14.826 -14.89,-14.826 h -37.903 c -8.218,0 -14.89,6.644 -14.89,14.826 v 45.894 c 0,8.183 6.672,14.826 14.89,14.826 h 37.903 c 8.218,0 14.89,-6.643 14.89,-14.826 z"
   style="fill:#ffffff"
   id="path839" />
                </g>
                <g
   transform="matrix(0.772073,0.829486,-0.833099,0.775435,134.206,-208.064)"
   id="g847">
                    <path
   d="m 352.458,195.385 c 0,-8.182 -6.672,-14.826 -14.89,-14.826 h -37.903 c -8.218,0 -14.89,6.644 -14.89,14.826 v 45.894 c 0,8.183 6.672,14.826 14.89,14.826 h 37.903 c 8.218,0 14.89,-6.643 14.89,-14.826 z"
   style="fill:#ff000b"
   id="path843" />
                    <path
   d="m 362.052,195.385 c 0,-13.454 -10.971,-24.377 -24.484,-24.377 h -37.903 c -13.512,0 -24.483,10.923 -24.483,24.377 0,0 0,45.894 0,45.894 0,13.454 10.971,24.377 24.483,24.377 0,0 37.903,0 37.903,0 13.513,0 24.484,-10.923 24.484,-24.377 0,0 0,-45.894 0,-45.894 z m -9.594,0 c 0,-8.182 -6.672,-14.826 -14.89,-14.826 h -37.903 c -8.218,0 -14.89,6.644 -14.89,14.826 v 45.894 c 0,8.183 6.672,14.826 14.89,14.826 h 37.903 c 8.218,0 14.89,-6.643 14.89,-14.826 z"
   style="fill:#ffffff"
   id="path845" />
                </g>
                <g
   transform="matrix(0.828771,-0.772841,0.776207,0.83238,-178.304,289.799)"
   id="g853">
                    <path
   d="m 352.458,195.385 c 0,-8.182 -6.672,-14.826 -14.89,-14.826 h -37.903 c -8.218,0 -14.89,6.644 -14.89,14.826 v 45.894 c 0,8.183 6.672,14.826 14.89,14.826 h 37.903 c 8.218,0 14.89,-6.643 14.89,-14.826 z"
   style="fill:#ff000b"
   id="path849" />
                    <path
   d="m 362.052,195.385 c 0,-13.454 -10.971,-24.377 -24.484,-24.377 h -37.903 c -13.512,0 -24.483,10.923 -24.483,24.377 v 45.894 c 0,13.454 10.971,24.377 24.483,24.377 h 37.903 c 13.513,0 24.484,-10.923 24.484,-24.377 z m -9.594,0 c 0,-8.182 -6.672,-14.826 -14.89,-14.826 h -37.903 c -8.218,0 -14.89,6.644 -14.89,14.826 v 45.894 c 0,8.183 6.672,14.826 14.89,14.826 h 37.903 c 8.218,0 14.89,-6.643 14.89,-14.826 z"
   style="fill:#ffffff"
   id="path851" />
                </g>
            </g>
</svg>
